<svg width="32" height="32" viewBox="0 0 32 32" fill="none" xmlns="http://www.w3.org/2000/svg">
<path d="M24 10.6667H25.3333C26.7478 10.6667 28.1044 11.2286 29.1046 12.2288C30.1048 13.229 30.6667 14.5855 30.6667 16C30.6667 17.4145 30.1048 18.771 29.1046 19.7712C28.1044 20.7714 26.7478 21.3333 25.3333 21.3333H24" stroke="white" stroke-width="2" stroke-linecap="round" stroke-linejoin="round"/>
<path d="M2.66667 10.6667H24V22.6667C24 24.0812 23.4381 25.4377 22.4379 26.4379C21.4377 27.4381 20.0812 28 18.6667 28H8C6.58551 28 5.22896 27.4381 4.22877 26.4379C3.22857 25.4377 2.66667 24.0812 2.66667 22.6667V10.6667Z" fill="white" stroke="white" stroke-width="2" stroke-linecap="round" stroke-linejoin="round"/>
<path d="M8 1.33333V5.33333" stroke="white" stroke-width="2" stroke-linecap="round" stroke-linejoin="round"/>
<path d="M13.3333 1.33333V5.33333" stroke="#7900C2" stroke-width="2" stroke-linecap="round" stroke-linejoin="round"/>
<path d="M18.6667 1.33333V5.33333" stroke="white" stroke-width="2" stroke-linecap="round" stroke-linejoin="round"/>
</svg>
